<svg width="45" height="46" viewBox="0 0 45 46" fill="none" xmlns="http://www.w3.org/2000/svg">
<path d="M26.2367 39.1629L29.0194 45.0823C33.2579 37.785 36.2821 34.1344 44.5348 29.5668C35.6935 25.0234 30.7659 22.0204 22.3025 11.6971L19.2762 15.7467C23.7589 21.6463 25.9391 25.0818 34.1101 29.5668C30.5096 32.9688 28.7443 35.0427 26.2367 39.1629Z" fill="black"/>
<path d="M44.5348 16.3774C36.9254 11.6655 33.4762 8.36555 29.2551 0.917847L26.2367 6.56694C30.4986 12.1031 33.3689 14.8872 38.8864 19.5878L44.5348 16.3774Z" fill="black"/>
<path d="M0.46521 16.4417C9.86072 21.1272 14.7784 24.6772 22.3025 34.3081C23.5231 32.2168 24.4403 31.221 26.2367 29.5668C21.0627 24.1223 17.9087 21.087 11.2061 15.7467C14.7863 12.6185 16.5751 10.6309 19.2762 6.56694C17.7647 4.92734 17.1548 3.6943 16.5525 0.917847C11.3288 7.9241 8.07204 11.5594 0.46521 16.4417Z" fill="black"/>
<path d="M19.2762 39.1629C15.1311 33.5886 12.4524 30.687 6.34501 26.3525L0.46521 29.5668C7.19604 33.1795 10.5563 36.7515 16.1615 44.5704L19.2762 39.1629Z" fill="black"/>
</svg>
